<svg viewBox="0 0 24 24" fill="none" xmlns="http://www.w3.org/2000/svg" preserveAspectRatio="xMidYMid meet" color="#909197" height="20" width="20"><path d="M19.75 1H4.23A3.21 3.21 0 001 4.23v15.52A3.21 3.21 0 004.23 23h15.52A3.209 3.209 0 0023 19.75V4.23A3.21 3.21 0 0019.75 1zM3 4.23A1.21 1.21 0 014.23 3h15.52A1.21 1.21 0 0121 4.23v8.67l-3.87-3.83a1 1 0 00-.71-.3 1 1 0 00-.7.3L3.89 20.89A1.19 1.19 0 013 19.75V4.23zM19.75 21H6.65l9.77-9.77 4.58 4.5v4A1.21 1.21 0 0119.75 21z" fill="currentColor"/><path d="M8.11 10.77a2.66 2.66 0 100-5.32 2.66 2.66 0 000 5.32zm0-3.32a.66.66 0 110 1.32.66.66 0 010-1.32z" fill="currentColor"/></svg>