<svg viewBox="0 0 24 24" fill="none" xmlns="http://www.w3.org/2000/svg" preserveAspectRatio="xMidYMid meet" color="#6D34CB" height="16" width="16"><path fill-rule="evenodd" clip-rule="evenodd" d="M10.52 21.88a1.912 1.912 0 002.56 0c2.318-2.09 4.095-4.049 5.334-5.879 1.457-2.154 2.186-4.148 2.186-5.981 0-2.75-.885-4.94-2.654-6.572C16.177 1.815 14.128 1 11.8 1s-4.377.816-6.146 2.447C3.884 5.08 3 7.27 3 10.02c0 1.833.729 3.827 2.186 5.981 1.239 1.83 3.016 3.79 5.333 5.878zM12 12a2 2 0 100-4 2 2 0 000 4z" fill="currentColor"/></svg>