<svg viewBox="0 0 24 24" fill="none" xmlns="http://www.w3.org/2000/svg" preserveAspectRatio="xMidYMid meet" color="#909197" height="16" width="16"><path fill-rule="evenodd" clip-rule="evenodd" d="M22.71 5.99a.99.99 0 010 1.399L12.346 17.753a.99.99 0 01-1.399 0l-4.71-4.711a.99.99 0 111.398-1.4l4.012 4.012L21.31 5.99a.99.99 0 011.4 0z" fill="currentColor"/><path d="M7.558 15.763a.5.5 0 00-.707 0l-.15.15-4.012-4.011a.99.99 0 10-1.4 1.399l4.712 4.711a.99.99 0 001.399 0l.85-.85a.5.5 0 000-.707l-.692-.692zM11.048 13.657a.5.5 0 00.707 0l6.009-6.01a.99.99 0 00-1.4-1.398l-6.008 6.009a.5.5 0 000 .707l.692.692z" fill="currentColor"/></svg>