<svg viewBox="0 0 24 24" fill="none" xmlns="http://www.w3.org/2000/svg" preserveAspectRatio="xMidYMid meet" color="#66686E" height="18" width="18"><path d="M19.13 23c-.1 0-.19 0-.28-.01-3.09-.33-6.09-1.4-8.69-3.09-2.41-1.53-4.5-3.62-6.03-6.04-1.69-2.6-2.76-5.62-3.08-8.72C.96 4.35 1.2 3.6 1.7 3c.5-.6 1.2-.96 1.97-1.03.08-.01.17-.01.26-.01h2.9c1.43 0 2.67 1.07 2.87 2.5.11.85.32 1.68.62 2.48.4 1.06.14 2.26-.66 3.07l-.66.66c1.11 1.73 2.59 3.21 4.32 4.32l.66-.66c.81-.8 2.01-1.06 3.08-.66.79.3 1.62.5 2.46.61a2.91 2.91 0 012.51 2.94v2.86c0 1.6-1.3 2.91-2.9 2.92zM6.82 3.96c-.01 0-.01 0 0 0H3.93c-.32.02-.54.14-.7.32a.96.96 0 00-.21.67c.29 2.77 1.25 5.48 2.78 7.83 1.38 2.18 3.26 4.05 5.43 5.43 2.35 1.52 5.05 2.48 7.82 2.78.57 0 .98-.41.97-.91v-2.87-.03a.901.901 0 00-.78-.92c-.98-.13-1.96-.37-2.9-.72a.898.898 0 00-.96.2l-1.21 1.21a1 1 0 01-1.2.16A16.29 16.29 0 016.86 11a1 1 0 01.16-1.2l1.21-1.21c.25-.25.33-.62.2-.96-.34-.93-.58-1.91-.71-2.9a.913.913 0 00-.9-.77zm11.34 6.64c-.47 0-.89-.33-.98-.81A3.78 3.78 0 0014.2 6.8a.999.999 0 01.38-1.96 5.75 5.75 0 014.56 4.57.994.994 0 01-.79 1.17c-.06.01-.13.02-.19.02zm3.82-.01c-.5 0-.94-.38-.99-.89a7.573 7.573 0 00-6.71-6.71.998.998 0 01-.88-1.1c.06-.55.55-.94 1.1-.88 4.49.5 7.98 3.98 8.48 8.47.06.55-.33 1.04-.88 1.11h-.12z" fill="currentColor"/></svg>