<svg viewBox="0 0 24 24" fill="none" xmlns="http://www.w3.org/2000/svg" preserveAspectRatio="xMidYMid meet" color="#36393E" height="24" width="24"><path d="M22.47 10A3.45 3.45 0 0019 6.79h-2a5.29 5.29 0 00-10.57 0H5A3.45 3.45 0 001.53 10L1 17.43a4.57 4.57 0 004.56 4.88h12.87A4.57 4.57 0 0023 17.43L22.47 10zm-10.8-6.31A3.3 3.3 0 0115 6.79H8.38a3.3 3.3 0 013.29-3.1zm8.64 15.81a2.56 2.56 0 01-1.88.81H5.57A2.55 2.55 0 013 17.57l.51-7.44A1.44 1.44 0 015 8.79h1.4V11a1 1 0 102 0V8.79H15V11a1 1 0 002 0V8.79h2a1.44 1.44 0 011.44 1.34l.56 7.44a2.55 2.55 0 01-.69 1.93z" fill="currentColor"/><path d="M15.33 16.9H8.69a1 1 0 000 2h6.64a1 1 0 000-2z" fill="currentColor"/></svg>